<?xml version="1.0" encoding="UTF-8"?>
<svg version="1.1" viewBox="0 0 2048 1536" width="1280" height="1280" xmlns="http://www.w3.org/2000/svg">
<path transform="translate(1396,203)" d="m0 0 6 2 18 12 14 11 10 9 8 7 9 11 10 13 12 19 10 21 7 19 7 27 4 30 1 16v27l-2 25-3 20v5l6-4 3-1 2-4 8-8 10-15 8-16 6-17 5-24 1-10v-45l-3-24-6-29-2-9 4 4 11 26 5 16 5 24 1 7v41l-5 27-6 20-8 20-13 25-12 19-12 16-11 13-7 8-12 12-7 8-1 3 24-7 21-8 23-12 20-14 14-12 9-9 7-8 12-16 11-19 10-22 4-10 1 4-6 20-11 28-8 16-9 16-8 11-10 13-9 10-14 14-13 10-15 10-21 11-16 6-28 7-21 3-14 1-31 1-1 2 5 2 17 7 25 7 24 4 9 1h31l28-4 19-5 21-8 15-8 12-8 7-5v3l-14 12-12 8-16 10-12 7-21 9-24 8-22 4-7 1h-37l-25-4-26-8-24-10-17-9-24-16-16-11-4-1 4 10 11 17 7 9 9 10 7 8 14 12 13 10 19 12 27 13 19 7 24 6 17 3 23 2v1l-5 1h-48l-25-3-15-3-25-7-30-12-2 15-11 54-9 41-4 22v2l5 2 11 7 6 5 6 9 1 3-1 14-12 65-24 128-4 11-6 9-9 8-12 5-16 3-2 2-10 46-16 79-7 31-6 15-8 12-10 10-16 9-11 4-10 2h-19l-40-4-80-9-55-7-26-3-70-9-51-7-57-9-44-7-39-7-38-7-34-7-43-10-45-12-33-11-19-8-11-8-6-8-5-12v-14l8-43 48-240 13-67 16-80 11-56 17-85 13-66 5-22 7-8 10-5 8-2h24l64 9 147 22h4l4-25 6-20 8-16 7-11 10-13 11-11 13-10 15-9 14-6 17-5 21-3h17l21 3 15 4 16 7 11 6 16 12 17 17 12 18 8 16 5 11 5-5 8-14 8-11 8-10 6-7-6-26-1-17 3-21 3-13-18 10-20 13-2-1 9-7 19-14 16-10 7-9 7-10 9-10 8-7 16-10 17-7 20-4h22l20 4 16 7 12 7 11 9 5 4v2l4 2 30 11 24 12 24 14 7 2-3-7-8-12-8-10-11-12-9-9-11-9-12-9-20-12-21-10-18-7-30-7-25-3-21-1v-1l22-4h33l31 4 20 5 25 9 21 10 15 10 16 12 6 5v2l4 2 7 7 7 8 12 15 11 17 8 14 8 15 9 21 3 5 4 2 2-21v-13l-2-19-4-20-6-18-9-20-11-19-10-14-13-16-11-12-12-11-11-9zm-231 230-7 8-11 12-11 14-7 9-3 6 1 14v14l-2 19-1 9 5 2 27 4h8l2-7 6-31 7-20 6-14 6-9-1-5-15-15-6-8zm36 68-7 10-7 15-6 15-1 5 6 2 17 2h7l-1-9-2-15-1-16-3-9zm53 42-3 8-1 6 2 3 5 2h3l-4-18z" fill="#FCD379"/>
<path transform="translate(1396,203)" d="m0 0 6 2 18 12 14 11 10 9 8 7 9 11 10 13 12 19 10 21 7 19 7 27 4 30 1 16v27l-2 25-3 20v5l6-4 3-1 2-4 8-8 10-15 8-16 6-17 5-24 1-10v-45l-3-24-6-29-2-9 4 4 11 26 5 16 5 24 1 7v41l-5 27-6 20-8 20-13 25-12 19-12 16-11 13-7 8-12 12-7 8-1 3 24-7 21-8 23-12 20-14 14-12 9-9 7-8 12-16 11-19 10-22 4-10 1 4-6 20-11 28-8 16-9 16-8 11-10 13-9 10-14 14-13 10-15 10-21 11-16 6-28 7-21 3-14 1-31 1-1 2 5 2 17 7 25 7 24 4 9 1h31l28-4 19-5 21-8 15-8 12-8 7-5v3l-14 12-12 8-16 10-12 7-21 9-24 8-22 4-7 1h-37l-25-4-26-8-24-10-17-9-24-16-16-11-4-1 4 10 11 17 7 9 9 10 7 8 14 12 13 10 19 12 27 13 19 7 24 6 17 3 23 2v1l-5 1h-48l-25-3-15-3-25-7-30-12-2 15-11 54-9 41-4 22v2l5 2 11 7 6 5 6 9 1 3-1 14-12 65-24 128-4 11-6 9-9 8-12 5-16 3-2 2-10 46-16 79-7 31-6 15-8 12-10 10-16 9-11 4-10 2h-19l-40-4-80-9-55-7-26-3-70-9-51-7-57-9-44-7-39-7-38-7-34-7-43-10-45-12-33-11-19-8-11-8-6-8-5-12v-14l8-43 48-240 13-67 16-80 11-56 17-85 13-66 5-22 7-8 10-5 8-2h24l64 9 147 22h4l4-25 6-20 8-16 7-11 10-13 11-11 13-10 15-9 14-6 17-5 21-3h17l21 3 15 4 16 7 11 6 16 12 17 17 12 18 8 16 5 11 5-5 8-14 8-11 8-10 6-7-6-26-1-17 3-21 3-13-18 10-20 13-2-1 9-7 19-14 16-10 7-9 7-10 9-10 8-7 16-10 17-7 20-4h22l20 4 16 7 12 7 11 9 5 4v2l4 2 30 11 24 12 24 14 7 2-3-7-8-12-8-10-11-12-9-9-11-9-12-9-20-12-21-10-18-7-30-7-25-3-21-1v-1l22-4h33l31 4 20 5 25 9 21 10 15 10 16 12 6 5v2l4 2 7 7 7 8 12 15 11 17 8 14 8 15 9 21 3 5 4 2 2-21v-13l-2-19-4-20-6-18-9-20-11-19-10-14-13-16-11-12-12-11-11-9zm-231 230-7 8-11 12-11 14-7 9-3 6 1 14v14l-2 19-1 9 5 2 27 4h8l2-7 6-31 7-20 6-14 6-9-1-5-15-15-6-8zm-563 67-15 73-7 36-8 41-32 160-16 82-20 100-12 61-16 80-2 13v7l4 11 5 6 12 7 30 11 33 10 56 14 42 9 64 12 60 10 73 11 81 11 64 8 77 9 82 9 11 1h9l12-3 12-5 11-8 8-9 8-15 5-18 9-43 19-91 1-11-87-12-40-6-15-5-13-7-9-7-5-4-8-10-9-16-4-13-2-12v-13l3-22 13-76 4-12 6-12 10-13 9-8 13-8 13-6 13-3 8-1h9l62 7 70 8 12 1 4-16 6-29 8-39 9-42 3-18v-13l-3-14-8-16-6-8-4-5-12-9-16-7-16-3-97-11-96-12-68-9-64-9-71-11-43-7-50-9-60-12-34-8-27-7-33-10-22-9-11-6zm599 1-7 10-7 15-6 15-1 5 6 2 17 2h7l-1-9-2-15-1-16-3-9zm53 42-3 8-1 6 2 3 5 2h3l-4-18z" fill="#1D1717"/>
<path transform="translate(602,500)" d="m0 0 5 2 17 8 19 7 30 9 32 8-3 1v11l-1 7h-2l1 9h-2l1 8-2 5-3 22v5l-2 4 2 1 1-3h7l1 1-1 13-12 67-12 64-17 91-15 82-9 48-9 50-9 47-12 65-4 19-3 2h-6v49l-1 4-8-1-34-9-35-11-25-10-10-7-5-8-2-7 1-14 12-61 14-70 21-106 14-71 21-106 15-75 11-56 15-75z" fill="#F5B278"/>
<path transform="translate(1396,203)" d="m0 0 6 2 18 12 14 11 10 9 8 7 9 11 10 13 12 19 10 21 7 19 7 27 4 30 1 16v27l-2 25-3 20v5l6-4 3-1 2-4 8-8 10-15 8-16 6-17 5-24 1-10v-45l-3-24-6-29-2-9 4 4 11 26 5 16 5 24 1 7v41l-5 27-6 20-8 20-13 25-12 19-12 16-11 13-7 8-12 12-7 8-1 3 24-7 21-8 23-12 20-14 14-12 9-9 7-8 12-16 11-19 10-22 4-10 1 4-6 20-11 28-8 16-9 16-8 11-10 13-9 10-14 14-13 10-15 10-21 11-16 6-28 7-21 3-14 1-31 1-1 2 5 2 17 7 25 7 24 4 9 1h31l28-4 19-5 21-8 15-8 12-8 7-5v3l-14 12-12 8-16 10-12 7-21 9-24 8-22 4-7 1h-37l-25-4-26-8-24-10-17-9-24-16-16-11-4-1 4 10 11 17 7 9 9 10 7 8 14 12 13 10 19 12 27 13 19 7 24 6 17 3 23 2v1l-5 1h-48l-25-3-15-3-25-7-30-12-1 3-1-15-5-16-5-9-3-7-5-8-7-6-1-2-10-5-14-9-8-16-7-11-4-4v-2h-2l-5-5-9-7-9-6-5-19-2 3-2 10v1l-10-1-27-5-8-1 4-1-3-14-2-26-2-9h-2l-2 4-6 10-5 11-8 20h-12l-4-2 5-29 4-16 10-25 7-11 3-2 13 8 15 7 14 4 9 1h24l15-3 16-6 13-7 12-9 9-9 11-15 10-21 4-16 1-22-2-16-4-16-8-16-9-13v-2l10 3 19 7 24 12 24 14 7 2-3-7-8-12-8-10-11-12-9-9-11-9-12-9-20-12-21-10-18-7-30-7-25-3-21-1v-1l22-4h33l31 4 20 5 25 9 21 10 15 10 16 12 6 5v2l4 2 7 7 7 8 12 15 11 17 8 14 8 15 9 21 3 5 4 2 2-21v-13l-2-19-4-20-6-18-9-20-11-19-10-14-13-16-11-12-12-11-11-9z" fill="#413E7F"/>
<path transform="translate(1157,833)" d="m0 0h18l136 16 24 2 14 2-1 10-18 96-13 70-5 24-4 10-4 6-8 7-9 4h-15l-134-18-13-4-14-7-12-11-8-10-8-16-3-12-1-15 4-27 11-67 5-16 5-10 7-9 9-9 14-9 13-5z" fill="#FCD379"/>
<path transform="translate(988,380)" d="m0 0h10l20 2 21 6 17 8 13 9 13 12 8 8 11 16 8 16 5 15 3 16 1 21-2 19-4 15-8 19-10 16-6 8h-8l-55-7-29-4-4-2 3-11 3-2 6 1h18l10-3 9-8 5-11 1-5v-11l-4-8-8-7 1-3 8-5 4-6 2-8v-10l-5-10-8-6-14-7 1-9 3-11v-3l-12-3-7 22-9-2-2-3 5-21-10-2-4-1-1 8-4 15-11-2-18-5-3 13-1 2 12 3 5 4-1 11-13 52-3 8h-7l-9-2-3 10-3 6 27 6 1 4-4 15-16-2-40-6-12-2-4-4-4-11-5-20-1-8v-22l3-19 6-18 10-19 9-12 12-13 11-9 13-8 15-7 16-5 11-2z" fill="#FCFBFA"/>
<path transform="translate(1247,284)" d="m0 0h17l18 3 15 6 15 9 13 12 10 13 6 10 5 13 3 14 1 16-1 13-4 15-5 12-6 11-8 10-10 10-15 10-11 5-17 5-7 1h-21l-18-4-16-7-10-6-10-9-9-9-10-15-6-15-4-16v-25l4-18 7-16 9-13 11-12 12-9 16-8 13-4z" fill="#FCFBF9"/>
<path transform="translate(1170,897)" d="m0 0h22l13 4 12 7 10 10 8 14 4 12 1 6-1 16-4 13-6 10-9 10-7 6-13 6-13 3-17-1-15-5-9-6-10-9-7-11-5-13-1-5v-19l4-13 6-11 10-11 14-9z" fill="#5FF4A8"/>
<path transform="translate(1216,335)" d="m0 0h8l5 1 1 13 31 1 26 1 2-14h9l3 3-1 20 18 1 1 3-1 7-1 1h-17v8l17 1v10l-1 1-17 1-3 12-6 9-7 4h-11l-8-4-5-4-2 5-4 5-7 3h-11l-9-3-6-5-4-8-3-18-14-1-4-2v-9l1-1h18v-8h-10l-8-1v-10l1-1h18z" fill="#141113"/>
<path transform="translate(1245,274)" d="m0 0h22l20 4 16 7 12 7 11 9 5 4v2l4 2 9 13 7 12 5 13 3 15 1 19-1 14-4 16-11 23-13 16-9 9-15 10-15 7-17 5-7 1h-24l-13-2-15-5-19-10-5-3-4-5-14-14-10-14-4-9v-4h-2l-6-25-1-17 3-21 3-13-18 10-20 13-2-1 9-7 19-14 16-10 7-9 7-10 9-10 8-7 16-10 17-7zm2 10-17 3-14 5-11 6-9 7-9 8-11 14-8 16-4 12-2 11v25l4 16 6 15 8 12 9 10 9 9 13 8 16 7 18 4h21l15-3 16-6 12-7 10-8 10-10 9-14 6-13 4-14 1-4 1-18-2-17-5-16-6-12-8-11-9-10-11-9-16-9-15-5-14-2z" fill="#151214"/>
<path transform="translate(695,604)" d="m0 0h7l1 1-1 13-12 67-12 64-17 91-15 82-9 48-9 50-9 47-12 65-4 19-5 2-5-2v-8l12-65 19-102 20-108 7-39 9-47 16-86 16-85z" fill="#2C201D"/>
<path transform="translate(622,477)" d="m0 0h17l24 3 110 16 39 6 42 6 5 1 1 2 2 22h-10l-81-12-33-5-48-7-44-6-14-2-13-4-10-5-5-3 1-5 9-5z" fill="#875844"/>
<path transform="translate(1121,548)" d="m0 0 12 1 99 15 14 3 16 8 10 7 10 10 9 13 1 5-1 1h-8l-12-3-11-7-16-8-18-5-64-9-38-6-12-2 1-5z" fill="#875844"/>
<path transform="translate(1192,461)" d="m0 0 14 8 15 7 13 4-3 24-2 17-2 30-1 2-12-1-8-1 4-1-3-14-2-26-2-9h-2l-2 4-6 10-5 11-8 20h-12l-4-2 5-29 4-16 10-25 7-11z" fill="#42407F"/>
<path transform="translate(1170,897)" d="m0 0h22l13 4 12 7 10 10 8 14 4 12 1 6-1 16-4 13-6 10-9 10-7 6-13 6-13 3-17-1-15-5-9-6-10-9-7-11-5-13-1-5v-19l4-13 6-11 10-11 14-9zm1 11-12 4-9 6-9 10-6 12-2 10v9l2 10 4 9 6 9 7 7 12 6 7 2 14 1 16-4 10-6 9-9 7-14 2-9v-13l-3-11-6-11-6-7-11-7-7-3-5-1z" fill="#1C1719"/>
<path transform="translate(1416,404)" d="m0 0h16l9 4 8 7 5 8 2 9-1 12-6 12-8 7-9 4h-15l-9-3-10-9-5-9-1-5v-12l3-9 7-9 8-5z" fill="#FBF3EC"/>
<path transform="translate(1418,393)" d="m0 0h10l12 3 9 5 8 7 7 11 2 6v18l-4 11-7 11-8 7-10 4-6 1h-14l-13-4-10-8-7-8-4-11-1-5v-12l2-8 6-12 8-8 11-6zm-2 11-9 4-8 6-5 8-2 7v12l3 9 4 6 9 8 9 3h15l12-6 7-8 4-9 1-12-2-9-6-9-7-6-9-4z" fill="#141113"/>
<path transform="translate(1339,638)" d="m0 0h2l7 8 14 12 13 10 19 12 27 13 19 7 24 6 17 3 23 2v1l-5 1h-48l-25-3-15-3-25-7-30-12-1 3-1-15-5-16-5-9-3-7-2-3z" fill="#48437E"/>
<path transform="translate(1219,476)" d="m0 0 12 3 3 1-3 24-2 17-2 30-1 2-12-1-8-1 4-1-3-14-2-26-2-9-2-1 10-14z" fill="#FCF7F3"/>
<path transform="translate(983,506)" d="m0 0 11 2 12 4 8 5 4 5 1 7-3 7-5 4-3 1h-17l-16-4 1-7 6-23z" fill="#FCF9F6"/>
<path transform="translate(1410,419)" d="m0 0 4 2 2 3 20 1 1-5h3l1 2v6l6 2v2l-6 1 3 3 3 2-1 2h-5l-2 6-4 4h-6l-6-1v2l-2 1h-7l-5-5-1-6-6-2v-3l5-1 1-3-4 1-2-2 1-4h5l1-7z" fill="#1A1515"/>
<path transform="translate(994,463)" d="m0 0 13 3 12 6 4 6v9l-5 6-6 2h-11l-14-3 1-10 5-18z" fill="#FCF8F4"/>
<path transform="translate(1159,416)" d="m0 0 8 16 2 3h-4l-8 8-7 8-11 13-9 12-3 5-2-2-2-14 6-8 11-18 11-14z" fill="#4A457E"/>
<path transform="translate(1228,369)" d="m0 0h16l9 1v9l-2 12-4 7-5 3-7-1-5-5-2-6z" fill="#FCF6F1"/>
<path transform="translate(1265,370)" d="m0 0 20 1 1 1v13l-3 8-3 3-7 1-6-3-3-7v-16z" fill="#FCF5F0"/>
<path transform="translate(1328,831)" d="m0 0 6 2 11 8 5 5v12h-1v-5l-14-1-11-2 3-17z" fill="#875844"/>
<path transform="translate(971,554)" d="m0 0 9 2 1 4-3 11-4 1-7-2 1-10z" fill="#FBF3EB"/>
<path transform="translate(1159,332)" d="m0 0 2 1-3 8-5 1-14 8-20 13-2-1 9-7 19-14z" fill="#70668E"/>
<path transform="translate(1236,1215)" d="m0 0h1l-1 12-4 20-5 12-9 13-5 5-2-1 8-9 8-15 5-18z" fill="#875844"/>
<path transform="translate(1414,432)" d="m0 0h7l2 2-1 8-2 2-5-1-2-5v-5z" fill="#FAE7D6"/>
<path transform="translate(1314,1039)" d="m0 0h1l-1 11-3 12-4 7-10 8-6 3-4-1 12-6 7-8 4-9z" fill="#875844"/>
<path transform="translate(1427,433)" d="m0 0h8v7l-2 3-5-1-1-2z" fill="#FAE1CC"/>
<path transform="translate(706,522)" d="m0 0h8l20 3v1h-11l-3 1-12-3z" fill="#403D7D"/>
<path transform="translate(595,1192)" d="m0 0 2 1 3 9 1 6-4-1-2-10z" fill="#F5B278"/>
<path transform="translate(1632,423)" d="m0 0 1 4-4 14-3-1 3-10z" fill="#B49896"/>
<path transform="translate(1611,589)" d="m0 0v3l-11 9v-3l5-5z" fill="#BDA2A0"/>
<path transform="translate(594,1194)" d="m0 0 2 3 1 10h-4z" fill="#FCD079"/>
<path transform="translate(1401,428)" d="m0 0 3 4h4l-1 4h-5z" fill="#F5B278"/>
<path transform="translate(1393,201)" d="m0 0 2 1z" fill="#FDFDFD"/>
<path transform="translate(1116,363)" d="m0 0" fill="#FDFDFD"/>
<path transform="translate(1395,202)" d="m0 0" fill="#3E3D80"/>
<path transform="translate(1392,200)" d="m0 0" fill="#FDFDFD"/>
</svg>
